{
	"patcher" : 	{
		"fileversion" : 1,
		"appversion" : 		{
			"major" : 6,
			"minor" : 0,
			"revision" : 3
		}
,
		"rect" : [ 725.0, 591.0, 955.0, 304.0 ],
		"bglocked" : 0,
		"openinpresentation" : 1,
		"default_fontsize" : 12.0,
		"default_fontface" : 0,
		"default_fontname" : "Arial",
		"gridonopen" : 0,
		"gridsize" : [ 15.0, 15.0 ],
		"gridsnaponopen" : 0,
		"statusbarvisible" : 2,
		"toolbarvisible" : 1,
		"boxanimatetime" : 200,
		"imprint" : 0,
		"enablehscroll" : 1,
		"enablevscroll" : 1,
		"devicewidth" : 0.0,
		"description" : "",
		"digest" : "",
		"tags" : "",
		"boxes" : [ 			{
				"box" : 				{
					"fontname" : "Arial",
					"fontsize" : 12.0,
					"id" : "obj-104",
					"maxclass" : "comment",
					"numinlets" : 1,
					"numoutlets" : 0,
					"patching_rect" : [ 452.0, 560.0, 36.0, 20.0 ],
					"presentation" : 1,
					"presentation_rect" : [ 182.821411, 141.0, 36.0, 20.0 ],
					"text" : "color"
				}

			}
, 			{
				"box" : 				{
					"id" : "obj-101",
					"maxclass" : "preset",
					"numinlets" : 1,
					"numoutlets" : 4,
					"outlettype" : [ "preset", "int", "preset", "int" ],
					"patching_rect" : [ 849.0, 169.0, 100.0, 40.0 ],
					"presentation" : 1,
					"presentation_rect" : [ 10.0, 140.0, 92.0, 40.0 ],
					"preset_data" : [ 						{
							"number" : 1,
							"data" : [ 5, "obj-22", "toggle", "int", 1, 5, "obj-26", "flonum", "float", 0.0, 5, "obj-27", "flonum", "float", 0.0, 5, "obj-28", "flonum", "float", 0.0, 5, "obj-30", "number", "int", 0, 5, "obj-31", "flonum", "float", 0.0, 5, "obj-34", "number", "int", 1, 5, "obj-103", "flonum", "float", 0.0, 5, "obj-121", "flonum", "float", 0.0, 5, "obj-122", "flonum", "float", 0.0, 5, "obj-123", "flonum", "float", 0.0, 5, "obj-126", "flonum", "float", 0.0, 5, "obj-125", "flonum", "float", 70.0, 5, "obj-124", "flonum", "float", 300.0, 5, "obj-202", "toggle", "int", 0, 5, "obj-161", "flonum", "float", 0.3, 5, "obj-6", "umenu", "int", 0, 5, "obj-21", "umenu", "int", 0, 5, "obj-55", "toggle", "int", 1, 5, "obj-54", "flonum", "float", 0.0, 5, "obj-53", "flonum", "float", 0.0, 5, "obj-52", "flonum", "float", 0.0, 5, "obj-51", "number", "int", 0, 5, "obj-50", "flonum", "float", 0.0, 5, "obj-48", "number", "int", 1, 5, "obj-45", "flonum", "float", 0.0, 5, "obj-43", "umenu", "int", 0, 5, "obj-35", "umenu", "int", 0, 5, "obj-85", "toggle", "int", 1, 5, "obj-84", "flonum", "float", 0.0, 5, "obj-83", "flonum", "float", 0.0, 5, "obj-82", "flonum", "float", 0.0, 5, "obj-79", "number", "int", 0, 5, "obj-78", "flonum", "float", 0.0, 5, "obj-76", "number", "int", 1, 5, "obj-71", "flonum", "float", 0.0, 5, "obj-69", "umenu", "int", 0, 5, "obj-61", "umenu", "int", 0, 5, "obj-95", "umenu", "int", 1 ]
						}
, 						{
							"number" : 2,
							"data" : [ 5, "obj-22", "toggle", "int", 1, 5, "obj-26", "flonum", "float", 0.0, 5, "obj-27", "flonum", "float", 0.0, 5, "obj-28", "flonum", "float", 1.12, 5, "obj-30", "number", "int", 0, 5, "obj-31", "flonum", "float", 0.0, 5, "obj-34", "number", "int", 5, 5, "obj-103", "flonum", "float", 1.7, 5, "obj-121", "flonum", "float", 0.0, 5, "obj-122", "flonum", "float", 0.0, 5, "obj-123", "flonum", "float", 0.0, 5, "obj-126", "flonum", "float", 0.0, 5, "obj-125", "flonum", "float", 70.0, 5, "obj-124", "flonum", "float", 300.0, 5, "obj-202", "toggle", "int", 0, 5, "obj-161", "flonum", "float", 0.3, 5, "obj-6", "umenu", "int", 1, 5, "obj-21", "umenu", "int", 4, 5, "obj-55", "toggle", "int", 1, 5, "obj-54", "flonum", "float", 0.0, 5, "obj-53", "flonum", "float", 0.0, 5, "obj-52", "flonum", "float", 1.31, 5, "obj-51", "number", "int", 0, 5, "obj-50", "flonum", "float", 0.0, 5, "obj-48", "number", "int", 5, 5, "obj-45", "flonum", "float", 5.0, 5, "obj-43", "umenu", "int", 1, 5, "obj-35", "umenu", "int", 4, 5, "obj-85", "toggle", "int", 1, 5, "obj-84", "flonum", "float", 0.0, 5, "obj-83", "flonum", "float", 0.0, 5, "obj-82", "flonum", "float", 8.9, 5, "obj-79", "number", "int", 0, 5, "obj-78", "flonum", "float", 0.0, 5, "obj-76", "number", "int", 5, 5, "obj-71", "flonum", "float", 1.58, 5, "obj-69", "umenu", "int", 1, 5, "obj-61", "umenu", "int", 4, 5, "obj-95", "umenu", "int", 1 ]
						}
, 						{
							"number" : 3,
							"data" : [ 5, "obj-22", "toggle", "int", 1, 5, "obj-26", "flonum", "float", 287.0, 5, "obj-27", "flonum", "float", 0.01, 5, "obj-28", "flonum", "float", 0.0, 5, "obj-30", "number", "int", 0, 5, "obj-31", "flonum", "float", 0.0, 5, "obj-34", "number", "int", 1, 5, "obj-103", "flonum", "float", 0.0, 5, "obj-121", "flonum", "float", 0.0, 5, "obj-122", "flonum", "float", 0.0, 5, "obj-123", "flonum", "float", 0.0, 5, "obj-126", "flonum", "float", 0.0, 5, "obj-125", "flonum", "float", 70.0, 5, "obj-124", "flonum", "float", 300.0, 5, "obj-202", "toggle", "int", 0, 5, "obj-161", "flonum", "float", 0.3, 5, "obj-6", "umenu", "int", 1, 5, "obj-21", "umenu", "int", 0, 5, "obj-55", "toggle", "int", 1, 5, "obj-54", "flonum", "float", 200.0, 5, "obj-53", "flonum", "float", 0.0, 5, "obj-52", "flonum", "float", 0.17, 5, "obj-51", "number", "int", 0, 5, "obj-50", "flonum", "float", 0.0, 5, "obj-48", "number", "int", 3, 5, "obj-45", "flonum", "float", 0.71, 5, "obj-43", "umenu", "int", 2, 5, "obj-35", "umenu", "int", 2, 5, "obj-85", "toggle", "int", 1, 5, "obj-84", "flonum", "float", 0.0, 5, "obj-83", "flonum", "float", 0.0, 5, "obj-82", "flonum", "float", 0.16, 5, "obj-79", "number", "int", 0, 5, "obj-78", "flonum", "float", 0.0, 5, "obj-76", "number", "int", 3, 5, "obj-71", "flonum", "float", 1.21, 5, "obj-69", "umenu", "int", 0, 5, "obj-61", "umenu", "int", 2, 5, "obj-95", "umenu", "int", 1 ]
						}
, 						{
							"number" : 4,
							"data" : [ 5, "obj-22", "toggle", "int", 1, 5, "obj-26", "flonum", "float", 0.0, 5, "obj-27", "flonum", "float", 0.01, 5, "obj-28", "flonum", "float", 0.0, 5, "obj-30", "number", "int", 0, 5, "obj-31", "flonum", "float", 0.0, 5, "obj-34", "number", "int", 7, 5, "obj-103", "flonum", "float", 0.0, 5, "obj-121", "flonum", "float", 0.0, 5, "obj-122", "flonum", "float", 0.0, 5, "obj-123", "flonum", "float", 0.0, 5, "obj-126", "flonum", "float", 0.0, 5, "obj-125", "flonum", "float", 0.0, 5, "obj-124", "flonum", "float", 114.0, 5, "obj-202", "toggle", "int", 0, 5, "obj-161", "flonum", "float", 1.0, 5, "obj-6", "umenu", "int", 1, 5, "obj-21", "umenu", "int", 6, 5, "obj-55", "toggle", "int", 1, 5, "obj-54", "flonum", "float", 0.0, 5, "obj-53", "flonum", "float", 0.0, 5, "obj-52", "flonum", "float", 0.17, 5, "obj-51", "number", "int", 0, 5, "obj-50", "flonum", "float", 0.0, 5, "obj-48", "number", "int", 7, 5, "obj-45", "flonum", "float", 0.71, 5, "obj-43", "umenu", "int", 1, 5, "obj-35", "umenu", "int", 6, 5, "obj-85", "toggle", "int", 1, 5, "obj-84", "flonum", "float", 0.0, 5, "obj-83", "flonum", "float", 0.0, 5, "obj-82", "flonum", "float", 0.16, 5, "obj-79", "number", "int", 0, 5, "obj-78", "flonum", "float", 0.0, 5, "obj-76", "number", "int", 7, 5, "obj-71", "flonum", "float", 1.21, 5, "obj-69", "umenu", "int", 1, 5, "obj-61", "umenu", "int", 6, 5, "obj-95", "umenu", "int", 1 ]
						}
, 						{
							"number" : 5,
							"data" : [ 5, "obj-22", "toggle", "int", 1, 5, "obj-26", "flonum", "float", 0.0, 5, "obj-27", "flonum", "float", 0.01, 5, "obj-28", "flonum", "float", 0.0, 5, "obj-30", "number", "int", 0, 5, "obj-31", "flonum", "float", 0.0, 5, "obj-34", "number", "int", 7, 5, "obj-103", "flonum", "float", 0.0, 5, "obj-121", "flonum", "float", 0.0, 5, "obj-122", "flonum", "float", 0.0, 5, "obj-123", "flonum", "float", 0.0, 5, "obj-126", "flonum", "float", 0.0, 5, "obj-125", "flonum", "float", 0.0, 5, "obj-124", "flonum", "float", 6.0, 5, "obj-202", "toggle", "int", 0, 5, "obj-161", "flonum", "float", 1.0, 5, "obj-6", "umenu", "int", 1, 5, "obj-21", "umenu", "int", 6, 5, "obj-55", "toggle", "int", 1, 5, "obj-54", "flonum", "float", 0.0, 5, "obj-53", "flonum", "float", 0.0, 5, "obj-52", "flonum", "float", 0.17, 5, "obj-51", "number", "int", 0, 5, "obj-50", "flonum", "float", 0.0, 5, "obj-48", "number", "int", 7, 5, "obj-45", "flonum", "float", 0.71, 5, "obj-43", "umenu", "int", 1, 5, "obj-35", "umenu", "int", 6, 5, "obj-85", "toggle", "int", 1, 5, "obj-84", "flonum", "float", 0.0, 5, "obj-83", "flonum", "float", 0.0, 5, "obj-82", "flonum", "float", 0.16, 5, "obj-79", "number", "int", 0, 5, "obj-78", "flonum", "float", 0.0, 5, "obj-76", "number", "int", 7, 5, "obj-71", "flonum", "float", 1.21, 5, "obj-69", "umenu", "int", 1, 5, "obj-61", "umenu", "int", 6, 5, "obj-95", "umenu", "int", 1 ]
						}
, 						{
							"number" : 6,
							"data" : [ 5, "obj-22", "toggle", "int", 1, 5, "obj-26", "flonum", "float", 287.0, 5, "obj-27", "flonum", "float", 0.01, 5, "obj-28", "flonum", "float", 0.75, 5, "obj-30", "number", "int", 0, 5, "obj-31", "flonum", "float", 0.0, 5, "obj-34", "number", "int", 9, 5, "obj-103", "flonum", "float", 3.0, 5, "obj-121", "flonum", "float", 0.0, 5, "obj-122", "flonum", "float", 0.0, 5, "obj-123", "flonum", "float", 0.0, 5, "obj-126", "flonum", "float", 0.0, 5, "obj-125", "flonum", "float", 70.0, 5, "obj-124", "flonum", "float", 300.0, 5, "obj-202", "toggle", "int", 0, 5, "obj-161", "flonum", "float", 0.3, 5, "obj-6", "umenu", "int", 1, 5, "obj-21", "umenu", "int", 8, 5, "obj-55", "toggle", "int", 1, 5, "obj-54", "flonum", "float", 200.0, 5, "obj-53", "flonum", "float", 0.0, 5, "obj-52", "flonum", "float", 0.17, 5, "obj-51", "number", "int", 0, 5, "obj-50", "flonum", "float", 18.0, 5, "obj-48", "number", "int", 3, 5, "obj-45", "flonum", "float", 0.71, 5, "obj-43", "umenu", "int", 2, 5, "obj-35", "umenu", "int", 2, 5, "obj-85", "toggle", "int", 1, 5, "obj-84", "flonum", "float", 0.0, 5, "obj-83", "flonum", "float", 0.0, 5, "obj-82", "flonum", "float", 0.16, 5, "obj-79", "number", "int", 0, 5, "obj-78", "flonum", "float", 0.0, 5, "obj-76", "number", "int", 3, 5, "obj-71", "flonum", "float", 1.21, 5, "obj-69", "umenu", "int", 0, 5, "obj-61", "umenu", "int", 2, 5, "obj-95", "umenu", "int", 1 ]
						}
 ]
				}

			}
, 			{
				"box" : 				{
					"fontname" : "Arial",
					"fontsize" : 12.0,
					"id" : "obj-100",
					"maxclass" : "comment",
					"numinlets" : 1,
					"numoutlets" : 0,
					"patching_rect" : [ 946.25, 300.0, 63.875, 20.0 ],
					"presentation" : 1,
					"presentation_rect" : [ 371.625, 164.0, 63.875, 20.0 ],
					"text" : "translate"
				}

			}
, 			{
				"box" : 				{
					"fontname" : "Arial",
					"fontsize" : 12.0,
					"id" : "obj-99",
					"maxclass" : "comment",
					"numinlets" : 1,
					"numoutlets" : 0,
					"patching_rect" : [ 785.625, 300.0, 42.0, 20.0 ],
					"presentation" : 1,
					"presentation_rect" : [ 371.625, 140.0, 42.0, 20.0 ],
					"text" : "rotate"
				}

			}
, 			{
				"box" : 				{
					"fontname" : "Arial",
					"fontsize" : 12.0,
					"id" : "obj-97",
					"maxclass" : "comment",
					"numinlets" : 1,
					"numoutlets" : 0,
					"patching_rect" : [ 34.5, 238.0, 32.5, 20.0 ],
					"presentation" : 1,
					"presentation_rect" : [ 185.571411, 162.0, 32.5, 20.0 ],
					"text" : "img"
				}

			}
, 			{
				"box" : 				{
					"fontname" : "Arial",
					"fontsize" : 12.0,
					"id" : "obj-95",
					"items" : [ "name", ",", "food", ",", "global" ],
					"maxclass" : "umenu",
					"numinlets" : 1,
					"numoutlets" : 3,
					"outlettype" : [ "int", "", "" ],
					"parameter_enable" : 0,
					"patching_rect" : [ 34.5, 267.0, 100.0, 20.0 ],
					"prefix" : "Name,Food,Global",
					"presentation" : 1,
					"presentation_rect" : [ 104.0, 162.0, 76.75, 20.0 ]
				}

			}
, 			{
				"box" : 				{
					"fontname" : "Arial",
					"fontsize" : 24.0,
					"id" : "obj-94",
					"maxclass" : "comment",
					"numinlets" : 1,
					"numoutlets" : 0,
					"patching_rect" : [ 936.0, 14.0, 124.428589, 34.0 ],
					"presentation" : 1,
					"presentation_rect" : [ 479.0, 127.0, 124.428589, 34.0 ],
					"text" : "Kashiyuka"
				}

			}
, 			{
				"box" : 				{
					"fontname" : "Arial",
					"fontsize" : 24.0,
					"id" : "obj-91",
					"maxclass" : "comment",
					"numinlets" : 1,
					"numoutlets" : 0,
					"patching_rect" : [ 473.0, 14.0, 104.0, 34.0 ],
					"presentation" : 1,
					"presentation_rect" : [ 479.0, 14.0, 104.0, 34.0 ],
					"text" : "Nocchi"
				}

			}
, 			{
				"box" : 				{
					"fontname" : "Arial",
					"fontsize" : 24.0,
					"id" : "obj-90",
					"maxclass" : "comment",
					"numinlets" : 1,
					"numoutlets" : 0,
					"patching_rect" : [ 10.0, 14.0, 104.0, 34.0 ],
					"presentation" : 1,
					"presentation_rect" : [ 10.0, 14.0, 104.0, 34.0 ],
					"text" : "Aa-Chan"
				}

			}
, 			{
				"box" : 				{
					"fontname" : "Arial",
					"fontsize" : 12.0,
					"id" : "obj-59",
					"maxclass" : "comment",
					"numinlets" : 1,
					"numoutlets" : 0,
					"patching_rect" : [ 1119.5, 107.0, 157.25, 20.0 ],
					"presentation" : 1,
					"presentation_rect" : [ 653.5, 212.0, 157.25, 20.0 ],
					"text" : "< basic-mode,adding noise"
				}

			}
, 			{
				"box" : 				{
					"fontname" : "Arial",
					"fontsize" : 12.0,
					"id" : "obj-60",
					"maxclass" : "newobj",
					"numinlets" : 2,
					"numoutlets" : 1,
					"outlettype" : [ "int" ],
					"patching_rect" : [ 1170.0, 154.0, 32.5, 20.0 ],
					"text" : "+ 1"
				}

			}
, 			{
				"box" : 				{
					"fontname" : "Arial",
					"fontsize" : 12.0,
					"id" : "obj-61",
					"items" : [ "basic", ",", "fall", ",", "circle", ",", "tree", ",", "tower", ",", "shadow", ",", "img", ",", "atract", ",", "charm", ",", "random1", ",", "random2", ",", "random3" ],
					"maxclass" : "umenu",
					"numinlets" : 1,
					"numoutlets" : 3,
					"outlettype" : [ "int", "", "" ],
					"parameter_enable" : 0,
					"patching_rect" : [ 984.428589, 107.0, 100.0, 20.0 ],
					"presentation" : 1,
					"presentation_rect" : [ 527.428589, 212.0, 100.0, 20.0 ]
				}

			}
, 			{
				"box" : 				{
					"fontname" : "Arial",
					"fontsize" : 12.0,
					"id" : "obj-62",
					"maxclass" : "comment",
					"numinlets" : 1,
					"numoutlets" : 0,
					"patching_rect" : [ 1363.125, 56.0, 21.25, 20.0 ],
					"presentation" : 1,
					"presentation_rect" : [ 898.125, 161.0, 21.25, 20.0 ],
					"text" : "z"
				}

			}
, 			{
				"box" : 				{
					"fontname" : "Arial",
					"fontsize" : 12.0,
					"id" : "obj-63",
					"maxclass" : "comment",
					"numinlets" : 1,
					"numoutlets" : 0,
					"patching_rect" : [ 1297.75, 56.0, 55.25, 20.0 ],
					"presentation" : 1,
					"presentation_rect" : [ 832.75, 161.0, 55.25, 20.0 ],
					"text" : "direction"
				}

			}
, 			{
				"box" : 				{
					"fontname" : "Arial",
					"fontsize" : 12.0,
					"id" : "obj-64",
					"maxclass" : "comment",
					"numinlets" : 1,
					"numoutlets" : 0,
					"patching_rect" : [ 1257.125, 56.0, 33.25, 20.0 ],
					"presentation" : 1,
					"presentation_rect" : [ 792.125, 161.0, 33.25, 20.0 ],
					"text" : "rad"
				}

			}
, 			{
				"box" : 				{
					"fontname" : "Arial",
					"fontsize" : 12.0,
					"id" : "obj-65",
					"maxclass" : "comment",
					"numinlets" : 1,
					"numoutlets" : 0,
					"patching_rect" : [ 1202.75, 56.0, 43.0, 20.0 ],
					"presentation" : 1,
					"presentation_rect" : [ 737.75, 161.0, 43.0, 20.0 ],
					"text" : "speed"
				}

			}
, 			{
				"box" : 				{
					"fontname" : "Arial",
					"fontsize" : 12.0,
					"id" : "obj-66",
					"maxclass" : "comment",
					"numinlets" : 1,
					"numoutlets" : 0,
					"patching_rect" : [ 1147.5, 56.0, 50.0, 20.0 ],
					"presentation" : 1,
					"presentation_rect" : [ 683.5, 161.0, 50.0, 20.0 ],
					"text" : "div-rot"
				}

			}
, 			{
				"box" : 				{
					"fontname" : "Arial",
					"fontsize" : 12.0,
					"id" : "obj-67",
					"maxclass" : "comment",
					"numinlets" : 1,
					"numoutlets" : 0,
					"patching_rect" : [ 1083.5, 56.0, 61.0, 20.0 ],
					"presentation" : 1,
					"presentation_rect" : [ 626.5, 161.0, 61.0, 20.0 ],
					"text" : "div-width"
				}

			}
, 			{
				"box" : 				{
					"fontname" : "Arial",
					"fontsize" : 12.0,
					"id" : "obj-68",
					"maxclass" : "comment",
					"numinlets" : 1,
					"numoutlets" : 0,
					"patching_rect" : [ 1008.428589, 56.0, 52.0, 20.0 ],
					"presentation" : 1,
					"presentation_rect" : [ 551.428589, 161.0, 52.0, 20.0 ],
					"text" : "division"
				}

			}
, 			{
				"box" : 				{
					"fontname" : "Arial",
					"fontsize" : 12.0,
					"id" : "obj-69",
					"items" : [ "none", ",", "circle", ",", "array" ],
					"maxclass" : "umenu",
					"numinlets" : 1,
					"numoutlets" : 3,
					"outlettype" : [ "int", "", "" ],
					"parameter_enable" : 0,
					"patching_rect" : [ 984.428589, 82.0, 100.0, 20.0 ],
					"presentation" : 1,
					"presentation_rect" : [ 527.428589, 187.0, 100.0, 20.0 ]
				}

			}
, 			{
				"box" : 				{
					"fontname" : "Arial",
					"fontsize" : 12.0,
					"id" : "obj-70",
					"maxclass" : "comment",
					"numinlets" : 1,
					"numoutlets" : 0,
					"patching_rect" : [ 936.0, 56.0, 69.0, 20.0 ],
					"presentation" : 1,
					"presentation_rect" : [ 479.0, 161.0, 69.0, 20.0 ],
					"text" : "pointSprite"
				}

			}
, 			{
				"box" : 				{
					"fontname" : "Arial",
					"fontsize" : 12.0,
					"id" : "obj-71",
					"maxclass" : "flonum",
					"numinlets" : 1,
					"numoutlets" : 2,
					"outlettype" : [ "float", "bang" ],
					"parameter_enable" : 0,
					"patching_rect" : [ 1248.75, 82.0, 50.0, 20.0 ],
					"presentation" : 1,
					"presentation_rect" : [ 783.75, 187.0, 50.0, 20.0 ]
				}

			}
, 			{
				"box" : 				{
					"id" : "obj-73",
					"maxclass" : "button",
					"numinlets" : 1,
					"numoutlets" : 1,
					"outlettype" : [ "bang" ],
					"patching_rect" : [ 1090.5, 107.0, 20.0, 20.0 ],
					"presentation" : 1,
					"presentation_rect" : [ 633.5, 212.0, 20.0, 20.0 ]
				}

			}
, 			{
				"box" : 				{
					"fontname" : "Arial",
					"fontsize" : 12.0,
					"id" : "obj-74",
					"maxclass" : "message",
					"numinlets" : 2,
					"numoutlets" : 1,
					"outlettype" : [ "" ],
					"patching_rect" : [ 1251.25, 144.0, 51.0, 18.0 ],
					"text" : "/reset 2"
				}

			}
, 			{
				"box" : 				{
					"fontname" : "Arial",
					"fontsize" : 12.0,
					"id" : "obj-76",
					"maxclass" : "number",
					"maximum" : 12,
					"minimum" : 1,
					"numinlets" : 1,
					"numoutlets" : 2,
					"outlettype" : [ "int", "bang" ],
					"parameter_enable" : 0,
					"patching_rect" : [ 1170.0, 183.0, 50.0, 20.0 ]
				}

			}
, 			{
				"box" : 				{
					"fontname" : "Arial",
					"fontsize" : 12.0,
					"id" : "obj-77",
					"maxclass" : "message",
					"numinlets" : 2,
					"numoutlets" : 1,
					"outlettype" : [ "" ],
					"patching_rect" : [ 1170.0, 217.0, 100.0, 18.0 ],
					"text" : "/moveMode $1 2"
				}

			}
, 			{
				"box" : 				{
					"fontname" : "Arial",
					"fontsize" : 12.0,
					"id" : "obj-78",
					"maxclass" : "flonum",
					"numinlets" : 1,
					"numoutlets" : 2,
					"outlettype" : [ "float", "bang" ],
					"parameter_enable" : 0,
					"patching_rect" : [ 1348.75, 82.0, 50.0, 20.0 ],
					"presentation" : 1,
					"presentation_rect" : [ 883.75, 187.0, 50.0, 20.0 ]
				}

			}
, 			{
				"box" : 				{
					"fontname" : "Arial",
					"fontsize" : 12.0,
					"id" : "obj-79",
					"maxclass" : "number",
					"maximum" : 2,
					"minimum" : 0,
					"numinlets" : 1,
					"numoutlets" : 2,
					"outlettype" : [ "int", "bang" ],
					"parameter_enable" : 0,
					"patching_rect" : [ 1298.75, 82.0, 50.0, 20.0 ],
					"presentation" : 1,
					"presentation_rect" : [ 833.75, 187.0, 50.0, 20.0 ]
				}

			}
, 			{
				"box" : 				{
					"fontname" : "Arial",
					"fontsize" : 12.0,
					"id" : "obj-82",
					"maxclass" : "flonum",
					"numinlets" : 1,
					"numoutlets" : 2,
					"outlettype" : [ "float", "bang" ],
					"parameter_enable" : 0,
					"patching_rect" : [ 1198.75, 82.0, 50.0, 20.0 ],
					"presentation" : 1,
					"presentation_rect" : [ 733.75, 187.0, 50.0, 20.0 ]
				}

			}
, 			{
				"box" : 				{
					"fontname" : "Arial",
					"fontsize" : 12.0,
					"id" : "obj-83",
					"maxclass" : "flonum",
					"numinlets" : 1,
					"numoutlets" : 2,
					"outlettype" : [ "float", "bang" ],
					"parameter_enable" : 0,
					"patching_rect" : [ 1147.5, 82.0, 50.0, 20.0 ],
					"presentation" : 1,
					"presentation_rect" : [ 683.5, 187.0, 50.0, 20.0 ]
				}

			}
, 			{
				"box" : 				{
					"fontname" : "Arial",
					"fontsize" : 12.0,
					"id" : "obj-84",
					"maxclass" : "flonum",
					"numinlets" : 1,
					"numoutlets" : 2,
					"outlettype" : [ "float", "bang" ],
					"parameter_enable" : 0,
					"patching_rect" : [ 1088.5, 82.0, 50.0, 20.0 ],
					"presentation" : 1,
					"presentation_rect" : [ 631.5, 187.0, 50.0, 20.0 ]
				}

			}
, 			{
				"box" : 				{
					"id" : "obj-85",
					"maxclass" : "toggle",
					"numinlets" : 1,
					"numoutlets" : 1,
					"outlettype" : [ "int" ],
					"parameter_enable" : 0,
					"patching_rect" : [ 960.5, 82.0, 20.0, 20.0 ],
					"presentation" : 1,
					"presentation_rect" : [ 479.0, 187.0, 45.0, 45.0 ]
				}

			}
, 			{
				"box" : 				{
					"fontname" : "Arial",
					"fontsize" : 12.0,
					"id" : "obj-86",
					"maxclass" : "newobj",
					"numinlets" : 8,
					"numoutlets" : 1,
					"outlettype" : [ "" ],
					"patching_rect" : [ 950.0, 151.0, 127.0, 20.0 ],
					"text" : "pak 0 0 0. 0. 0. 0. 0 0."
				}

			}
, 			{
				"box" : 				{
					"fontname" : "Arial",
					"fontsize" : 12.0,
					"id" : "obj-87",
					"maxclass" : "message",
					"numinlets" : 2,
					"numoutlets" : 1,
					"outlettype" : [ "" ],
					"patching_rect" : [ 950.0, 188.0, 183.0, 18.0 ],
					"text" : "/each $1 $2 $3 $4 $5 $6 $7 $8 2"
				}

			}
, 			{
				"box" : 				{
					"fontname" : "Arial",
					"fontsize" : 12.0,
					"id" : "obj-88",
					"maxclass" : "newobj",
					"numinlets" : 1,
					"numoutlets" : 0,
					"patching_rect" : [ 1170.0, 249.0, 39.0, 20.0 ],
					"text" : "s osc"
				}

			}
, 			{
				"box" : 				{
					"fontname" : "Arial",
					"fontsize" : 12.0,
					"id" : "obj-29",
					"maxclass" : "comment",
					"numinlets" : 1,
					"numoutlets" : 0,
					"patching_rect" : [ 193.5, 107.0, 157.25, 20.0 ],
					"presentation" : 1,
					"presentation_rect" : [ 193.5, 99.0, 157.25, 20.0 ],
					"text" : "< basic-mode,adding noise"
				}

			}
, 			{
				"box" : 				{
					"fontname" : "Arial",
					"fontsize" : 12.0,
					"id" : "obj-33",
					"maxclass" : "newobj",
					"numinlets" : 2,
					"numoutlets" : 1,
					"outlettype" : [ "int" ],
					"patching_rect" : [ 244.0, 154.0, 32.5, 20.0 ],
					"text" : "+ 1"
				}

			}
, 			{
				"box" : 				{
					"fontname" : "Arial",
					"fontsize" : 12.0,
					"id" : "obj-35",
					"items" : [ "basic", ",", "fall", ",", "circle", ",", "tree", ",", "tower", ",", "shadow", ",", "img", ",", "atract", ",", "charm", ",", "random1", ",", "random2", ",", "random3" ],
					"maxclass" : "umenu",
					"numinlets" : 1,
					"numoutlets" : 3,
					"outlettype" : [ "int", "", "" ],
					"parameter_enable" : 0,
					"patching_rect" : [ 58.428589, 107.0, 100.0, 20.0 ],
					"presentation" : 1,
					"presentation_rect" : [ 58.428589, 99.0, 100.0, 20.0 ]
				}

			}
, 			{
				"box" : 				{
					"fontname" : "Arial",
					"fontsize" : 12.0,
					"id" : "obj-36",
					"maxclass" : "comment",
					"numinlets" : 1,
					"numoutlets" : 0,
					"patching_rect" : [ 437.125, 56.0, 21.25, 20.0 ],
					"presentation" : 1,
					"presentation_rect" : [ 428.125, 48.0, 21.25, 20.0 ],
					"text" : "z"
				}

			}
, 			{
				"box" : 				{
					"fontname" : "Arial",
					"fontsize" : 12.0,
					"id" : "obj-37",
					"maxclass" : "comment",
					"numinlets" : 1,
					"numoutlets" : 0,
					"patching_rect" : [ 371.75, 56.0, 55.25, 20.0 ],
					"presentation" : 1,
					"presentation_rect" : [ 362.75, 48.0, 55.25, 20.0 ],
					"text" : "direction"
				}

			}
, 			{
				"box" : 				{
					"fontname" : "Arial",
					"fontsize" : 12.0,
					"id" : "obj-38",
					"maxclass" : "comment",
					"numinlets" : 1,
					"numoutlets" : 0,
					"patching_rect" : [ 331.125, 56.0, 33.25, 20.0 ],
					"presentation" : 1,
					"presentation_rect" : [ 322.125, 48.0, 33.25, 20.0 ],
					"text" : "rad"
				}

			}
, 			{
				"box" : 				{
					"fontname" : "Arial",
					"fontsize" : 12.0,
					"id" : "obj-39",
					"maxclass" : "comment",
					"numinlets" : 1,
					"numoutlets" : 0,
					"patching_rect" : [ 276.75, 56.0, 43.0, 20.0 ],
					"presentation" : 1,
					"presentation_rect" : [ 267.75, 48.0, 43.0, 20.0 ],
					"text" : "speed"
				}

			}
, 			{
				"box" : 				{
					"fontname" : "Arial",
					"fontsize" : 12.0,
					"id" : "obj-40",
					"maxclass" : "comment",
					"numinlets" : 1,
					"numoutlets" : 0,
					"patching_rect" : [ 221.5, 56.0, 50.0, 20.0 ],
					"presentation" : 1,
					"presentation_rect" : [ 216.5, 48.0, 50.0, 20.0 ],
					"text" : "div-rot"
				}

			}
, 			{
				"box" : 				{
					"fontname" : "Arial",
					"fontsize" : 12.0,
					"id" : "obj-41",
					"maxclass" : "comment",
					"numinlets" : 1,
					"numoutlets" : 0,
					"patching_rect" : [ 157.5, 56.0, 61.0, 20.0 ],
					"presentation" : 1,
					"presentation_rect" : [ 157.5, 48.0, 61.0, 20.0 ],
					"text" : "div-width"
				}

			}
, 			{
				"box" : 				{
					"fontname" : "Arial",
					"fontsize" : 12.0,
					"id" : "obj-42",
					"maxclass" : "comment",
					"numinlets" : 1,
					"numoutlets" : 0,
					"patching_rect" : [ 82.428589, 56.0, 52.0, 20.0 ],
					"presentation" : 1,
					"presentation_rect" : [ 82.428589, 48.0, 52.0, 20.0 ],
					"text" : "division"
				}

			}
, 			{
				"box" : 				{
					"fontname" : "Arial",
					"fontsize" : 12.0,
					"id" : "obj-43",
					"items" : [ "none", ",", "circle", ",", "array" ],
					"maxclass" : "umenu",
					"numinlets" : 1,
					"numoutlets" : 3,
					"outlettype" : [ "int", "", "" ],
					"parameter_enable" : 0,
					"patching_rect" : [ 58.428589, 82.0, 100.0, 20.0 ],
					"presentation" : 1,
					"presentation_rect" : [ 58.428589, 74.0, 100.0, 20.0 ]
				}

			}
, 			{
				"box" : 				{
					"fontname" : "Arial",
					"fontsize" : 12.0,
					"id" : "obj-44",
					"maxclass" : "comment",
					"numinlets" : 1,
					"numoutlets" : 0,
					"patching_rect" : [ 10.0, 56.0, 69.0, 20.0 ],
					"presentation" : 1,
					"presentation_rect" : [ 10.0, 48.0, 69.0, 20.0 ],
					"text" : "pointSprite"
				}

			}
, 			{
				"box" : 				{
					"fontname" : "Arial",
					"fontsize" : 12.0,
					"id" : "obj-45",
					"maxclass" : "flonum",
					"numinlets" : 1,
					"numoutlets" : 2,
					"outlettype" : [ "float", "bang" ],
					"parameter_enable" : 0,
					"patching_rect" : [ 322.75, 82.0, 50.0, 20.0 ],
					"presentation" : 1,
					"presentation_rect" : [ 313.75, 74.0, 50.0, 20.0 ]
				}

			}
, 			{
				"box" : 				{
					"id" : "obj-46",
					"maxclass" : "button",
					"numinlets" : 1,
					"numoutlets" : 1,
					"outlettype" : [ "bang" ],
					"patching_rect" : [ 164.5, 107.0, 20.0, 20.0 ],
					"presentation" : 1,
					"presentation_rect" : [ 164.5, 99.0, 20.0, 20.0 ]
				}

			}
, 			{
				"box" : 				{
					"fontname" : "Arial",
					"fontsize" : 12.0,
					"id" : "obj-47",
					"maxclass" : "message",
					"numinlets" : 2,
					"numoutlets" : 1,
					"outlettype" : [ "" ],
					"patching_rect" : [ 325.25, 144.0, 51.0, 18.0 ],
					"text" : "/reset 0"
				}

			}
, 			{
				"box" : 				{
					"fontname" : "Arial",
					"fontsize" : 12.0,
					"id" : "obj-48",
					"maxclass" : "number",
					"maximum" : 12,
					"minimum" : 1,
					"numinlets" : 1,
					"numoutlets" : 2,
					"outlettype" : [ "int", "bang" ],
					"parameter_enable" : 0,
					"patching_rect" : [ 244.0, 183.0, 50.0, 20.0 ]
				}

			}
, 			{
				"box" : 				{
					"fontname" : "Arial",
					"fontsize" : 12.0,
					"id" : "obj-49",
					"maxclass" : "message",
					"numinlets" : 2,
					"numoutlets" : 1,
					"outlettype" : [ "" ],
					"patching_rect" : [ 244.0, 217.0, 100.0, 18.0 ],
					"text" : "/moveMode $1 0"
				}

			}
, 			{
				"box" : 				{
					"fontname" : "Arial",
					"fontsize" : 12.0,
					"id" : "obj-50",
					"maxclass" : "flonum",
					"numinlets" : 1,
					"numoutlets" : 2,
					"outlettype" : [ "float", "bang" ],
					"parameter_enable" : 0,
					"patching_rect" : [ 422.75, 82.0, 50.0, 20.0 ],
					"presentation" : 1,
					"presentation_rect" : [ 413.75, 74.0, 50.0, 20.0 ]
				}

			}
, 			{
				"box" : 				{
					"fontname" : "Arial",
					"fontsize" : 12.0,
					"id" : "obj-51",
					"maxclass" : "number",
					"maximum" : 2,
					"minimum" : 0,
					"numinlets" : 1,
					"numoutlets" : 2,
					"outlettype" : [ "int", "bang" ],
					"parameter_enable" : 0,
					"patching_rect" : [ 372.75, 82.0, 50.0, 20.0 ],
					"presentation" : 1,
					"presentation_rect" : [ 363.75, 74.0, 50.0, 20.0 ]
				}

			}
, 			{
				"box" : 				{
					"fontname" : "Arial",
					"fontsize" : 12.0,
					"id" : "obj-52",
					"maxclass" : "flonum",
					"numinlets" : 1,
					"numoutlets" : 2,
					"outlettype" : [ "float", "bang" ],
					"parameter_enable" : 0,
					"patching_rect" : [ 272.75, 82.0, 50.0, 20.0 ],
					"presentation" : 1,
					"presentation_rect" : [ 263.75, 74.0, 50.0, 20.0 ]
				}

			}
, 			{
				"box" : 				{
					"fontname" : "Arial",
					"fontsize" : 12.0,
					"id" : "obj-53",
					"maxclass" : "flonum",
					"numinlets" : 1,
					"numoutlets" : 2,
					"outlettype" : [ "float", "bang" ],
					"parameter_enable" : 0,
					"patching_rect" : [ 221.5, 82.0, 50.0, 20.0 ],
					"presentation" : 1,
					"presentation_rect" : [ 213.5, 74.0, 50.0, 20.0 ]
				}

			}
, 			{
				"box" : 				{
					"fontname" : "Arial",
					"fontsize" : 12.0,
					"id" : "obj-54",
					"maxclass" : "flonum",
					"numinlets" : 1,
					"numoutlets" : 2,
					"outlettype" : [ "float", "bang" ],
					"parameter_enable" : 0,
					"patching_rect" : [ 162.5, 82.0, 50.0, 20.0 ],
					"presentation" : 1,
					"presentation_rect" : [ 162.5, 74.0, 50.0, 20.0 ]
				}

			}
, 			{
				"box" : 				{
					"id" : "obj-55",
					"maxclass" : "toggle",
					"numinlets" : 1,
					"numoutlets" : 1,
					"outlettype" : [ "int" ],
					"parameter_enable" : 0,
					"patching_rect" : [ 34.5, 82.0, 20.0, 20.0 ],
					"presentation" : 1,
					"presentation_rect" : [ 10.0, 74.0, 45.0, 45.0 ]
				}

			}
, 			{
				"box" : 				{
					"fontname" : "Arial",
					"fontsize" : 12.0,
					"id" : "obj-56",
					"maxclass" : "newobj",
					"numinlets" : 8,
					"numoutlets" : 1,
					"outlettype" : [ "" ],
					"patching_rect" : [ 24.0, 151.0, 127.0, 20.0 ],
					"text" : "pak 0 0 0. 0. 0. 0. 0 0."
				}

			}
, 			{
				"box" : 				{
					"fontname" : "Arial",
					"fontsize" : 12.0,
					"id" : "obj-57",
					"maxclass" : "message",
					"numinlets" : 2,
					"numoutlets" : 1,
					"outlettype" : [ "" ],
					"patching_rect" : [ 24.0, 188.0, 183.0, 18.0 ],
					"text" : "/each $1 $2 $3 $4 $5 $6 $7 $8 0"
				}

			}
, 			{
				"box" : 				{
					"fontname" : "Arial",
					"fontsize" : 12.0,
					"id" : "obj-58",
					"maxclass" : "newobj",
					"numinlets" : 1,
					"numoutlets" : 0,
					"patching_rect" : [ 244.0, 249.0, 39.0, 20.0 ],
					"text" : "s osc"
				}

			}
, 			{
				"box" : 				{
					"fontface" : 2,
					"fontname" : "Arial",
					"fontsize" : 12.0,
					"id" : "obj-25",
					"linecount" : 2,
					"maxclass" : "comment",
					"numinlets" : 1,
					"numoutlets" : 0,
					"patching_rect" : [ 1083.5, 295.0, 302.0, 35.0 ],
					"presentation" : 1,
					"presentation_linecount" : 2,
					"presentation_rect" : [ 10.0, 197.0, 228.0, 35.0 ],
					"text" : "perfume-favorite-food-particle-controller \nby Kezzardrix (kezzardrix.net)"
				}

			}
, 			{
				"box" : 				{
					"fontname" : "Arial",
					"fontsize" : 12.0,
					"id" : "obj-24",
					"maxclass" : "comment",
					"numinlets" : 1,
					"numoutlets" : 0,
					"patching_rect" : [ 656.5, 107.0, 157.25, 20.0 ],
					"presentation" : 1,
					"presentation_rect" : [ 653.5, 99.0, 157.25, 20.0 ],
					"text" : "< basic-mode,adding noise"
				}

			}
, 			{
				"box" : 				{
					"fontname" : "Arial",
					"fontsize" : 12.0,
					"id" : "obj-23",
					"maxclass" : "newobj",
					"numinlets" : 2,
					"numoutlets" : 1,
					"outlettype" : [ "int" ],
					"patching_rect" : [ 707.0, 154.0, 32.5, 20.0 ],
					"text" : "+ 1"
				}

			}
, 			{
				"box" : 				{
					"fontname" : "Arial",
					"fontsize" : 12.0,
					"id" : "obj-21",
					"items" : [ "basic", ",", "fall", ",", "circle", ",", "tree", ",", "tower", ",", "shadow", ",", "img", ",", "atract", ",", "charm", ",", "random1", ",", "random2", ",", "random3" ],
					"maxclass" : "umenu",
					"numinlets" : 1,
					"numoutlets" : 3,
					"outlettype" : [ "int", "", "" ],
					"parameter_enable" : 0,
					"patching_rect" : [ 521.428589, 107.0, 100.0, 20.0 ],
					"presentation" : 1,
					"presentation_rect" : [ 527.428589, 99.0, 100.0, 20.0 ]
				}

			}
, 			{
				"box" : 				{
					"fontname" : "Arial",
					"fontsize" : 12.0,
					"id" : "obj-20",
					"maxclass" : "comment",
					"numinlets" : 1,
					"numoutlets" : 0,
					"patching_rect" : [ 900.125, 56.0, 21.25, 20.0 ],
					"presentation" : 1,
					"presentation_rect" : [ 899.125, 48.0, 21.25, 20.0 ],
					"text" : "z"
				}

			}
, 			{
				"box" : 				{
					"fontname" : "Arial",
					"fontsize" : 12.0,
					"id" : "obj-18",
					"maxclass" : "comment",
					"numinlets" : 1,
					"numoutlets" : 0,
					"patching_rect" : [ 834.75, 56.0, 55.25, 20.0 ],
					"presentation" : 1,
					"presentation_rect" : [ 833.75, 48.0, 55.25, 20.0 ],
					"text" : "direction"
				}

			}
, 			{
				"box" : 				{
					"fontname" : "Arial",
					"fontsize" : 12.0,
					"id" : "obj-17",
					"maxclass" : "comment",
					"numinlets" : 1,
					"numoutlets" : 0,
					"patching_rect" : [ 794.125, 56.0, 33.25, 20.0 ],
					"presentation" : 1,
					"presentation_rect" : [ 793.125, 48.0, 33.25, 20.0 ],
					"text" : "rad"
				}

			}
, 			{
				"box" : 				{
					"fontname" : "Arial",
					"fontsize" : 12.0,
					"id" : "obj-16",
					"maxclass" : "comment",
					"numinlets" : 1,
					"numoutlets" : 0,
					"patching_rect" : [ 739.75, 56.0, 43.0, 20.0 ],
					"presentation" : 1,
					"presentation_rect" : [ 738.75, 48.0, 43.0, 20.0 ],
					"text" : "speed"
				}

			}
, 			{
				"box" : 				{
					"fontname" : "Arial",
					"fontsize" : 12.0,
					"id" : "obj-15",
					"maxclass" : "comment",
					"numinlets" : 1,
					"numoutlets" : 0,
					"patching_rect" : [ 684.5, 56.0, 50.0, 20.0 ],
					"presentation" : 1,
					"presentation_rect" : [ 682.5, 48.0, 50.0, 20.0 ],
					"text" : "div-rot"
				}

			}
, 			{
				"box" : 				{
					"fontname" : "Arial",
					"fontsize" : 12.0,
					"id" : "obj-14",
					"maxclass" : "message",
					"numinlets" : 2,
					"numoutlets" : 1,
					"outlettype" : [ "" ],
					"patching_rect" : [ 578.0, 502.0, 32.5, 18.0 ],
					"text" : "1."
				}

			}
, 			{
				"box" : 				{
					"fontname" : "Arial",
					"fontsize" : 12.0,
					"id" : "obj-12",
					"maxclass" : "message",
					"numinlets" : 2,
					"numoutlets" : 1,
					"outlettype" : [ "" ],
					"patching_rect" : [ 547.0, 483.0, 32.5, 18.0 ],
					"text" : "0.3"
				}

			}
, 			{
				"box" : 				{
					"fontname" : "Arial",
					"fontsize" : 12.0,
					"id" : "obj-10",
					"maxclass" : "newobj",
					"numinlets" : 3,
					"numoutlets" : 3,
					"outlettype" : [ "bang", "bang", "" ],
					"patching_rect" : [ 578.0, 439.0, 46.0, 20.0 ],
					"text" : "sel 0 1"
				}

			}
, 			{
				"box" : 				{
					"fontname" : "Arial",
					"fontsize" : 12.0,
					"id" : "obj-9",
					"maxclass" : "newobj",
					"numinlets" : 1,
					"numoutlets" : 1,
					"outlettype" : [ "" ],
					"patching_rect" : [ 473.0, 408.0, 82.0, 20.0 ],
					"text" : "loadmess 0.3"
				}

			}
, 			{
				"box" : 				{
					"fontname" : "Arial",
					"fontsize" : 12.0,
					"id" : "obj-8",
					"maxclass" : "comment",
					"numinlets" : 1,
					"numoutlets" : 0,
					"patching_rect" : [ 620.5, 56.0, 61.0, 20.0 ],
					"presentation" : 1,
					"presentation_rect" : [ 626.5, 48.0, 61.0, 20.0 ],
					"text" : "div-width"
				}

			}
, 			{
				"box" : 				{
					"fontname" : "Arial",
					"fontsize" : 12.0,
					"id" : "obj-7",
					"maxclass" : "comment",
					"numinlets" : 1,
					"numoutlets" : 0,
					"patching_rect" : [ 545.428589, 56.0, 52.0, 20.0 ],
					"presentation" : 1,
					"presentation_rect" : [ 551.428589, 48.0, 52.0, 20.0 ],
					"text" : "division"
				}

			}
, 			{
				"box" : 				{
					"fontname" : "Arial",
					"fontsize" : 12.0,
					"id" : "obj-6",
					"items" : [ "none", ",", "circle", ",", "array" ],
					"maxclass" : "umenu",
					"numinlets" : 1,
					"numoutlets" : 3,
					"outlettype" : [ "int", "", "" ],
					"parameter_enable" : 0,
					"patching_rect" : [ 521.428589, 82.0, 100.0, 20.0 ],
					"presentation" : 1,
					"presentation_rect" : [ 527.428589, 74.0, 100.0, 20.0 ]
				}

			}
, 			{
				"box" : 				{
					"fontname" : "Arial",
					"fontsize" : 12.0,
					"id" : "obj-3",
					"maxclass" : "comment",
					"numinlets" : 1,
					"numoutlets" : 0,
					"patching_rect" : [ 473.0, 56.0, 69.0, 20.0 ],
					"presentation" : 1,
					"presentation_rect" : [ 479.0, 48.0, 69.0, 20.0 ],
					"text" : "pointSprite"
				}

			}
, 			{
				"box" : 				{
					"fontname" : "Arial",
					"fontsize" : 12.0,
					"id" : "obj-161",
					"maxclass" : "flonum",
					"maximum" : 1.0,
					"minimum" : 0.0,
					"numinlets" : 1,
					"numoutlets" : 2,
					"outlettype" : [ "float", "bang" ],
					"parameter_enable" : 0,
					"patching_rect" : [ 531.0, 539.0, 50.0, 20.0 ],
					"presentation" : 1,
					"presentation_rect" : [ 104.0, 140.0, 56.0, 20.0 ]
				}

			}
, 			{
				"box" : 				{
					"id" : "obj-202",
					"maxclass" : "toggle",
					"numinlets" : 1,
					"numoutlets" : 1,
					"outlettype" : [ "int" ],
					"parameter_enable" : 0,
					"patching_rect" : [ 547.0, 302.0, 20.0, 20.0 ],
					"presentation" : 1,
					"presentation_rect" : [ 162.071411, 140.0, 20.0, 20.0 ]
				}

			}
, 			{
				"box" : 				{
					"fontname" : "Arial",
					"fontsize" : 12.0,
					"id" : "obj-201",
					"maxclass" : "message",
					"numinlets" : 2,
					"numoutlets" : 1,
					"outlettype" : [ "" ],
					"patching_rect" : [ 547.0, 331.0, 90.0, 18.0 ],
					"text" : "/blendMode $1"
				}

			}
, 			{
				"box" : 				{
					"fontname" : "Arial",
					"fontsize" : 12.0,
					"id" : "obj-199",
					"maxclass" : "newobj",
					"numinlets" : 1,
					"numoutlets" : 0,
					"patching_rect" : [ 642.5, 408.0, 39.0, 20.0 ],
					"text" : "s osc"
				}

			}
, 			{
				"box" : 				{
					"fontname" : "Arial",
					"fontsize" : 12.0,
					"id" : "obj-131",
					"maxclass" : "message",
					"numinlets" : 2,
					"numoutlets" : 1,
					"outlettype" : [ "" ],
					"patching_rect" : [ 34.5, 315.0, 79.0, 18.0 ],
					"text" : "/imgID $1"
				}

			}
, 			{
				"box" : 				{
					"fontname" : "Arial",
					"fontsize" : 12.0,
					"id" : "obj-130",
					"maxclass" : "newobj",
					"numinlets" : 1,
					"numoutlets" : 0,
					"patching_rect" : [ 34.5, 346.0, 39.0, 20.0 ],
					"text" : "s osc"
				}

			}
, 			{
				"box" : 				{
					"fontname" : "Arial",
					"fontsize" : 12.0,
					"id" : "obj-124",
					"maxclass" : "flonum",
					"numinlets" : 1,
					"numoutlets" : 2,
					"outlettype" : [ "float", "bang" ],
					"parameter_enable" : 0,
					"patching_rect" : [ 1011.75, 331.0, 50.0, 20.0 ],
					"presentation" : 1,
					"presentation_rect" : [ 321.625, 162.0, 50.0, 20.0 ]
				}

			}
, 			{
				"box" : 				{
					"fontname" : "Arial",
					"fontsize" : 12.0,
					"id" : "obj-125",
					"maxclass" : "flonum",
					"numinlets" : 1,
					"numoutlets" : 2,
					"outlettype" : [ "float", "bang" ],
					"parameter_enable" : 0,
					"patching_rect" : [ 960.125, 331.0, 50.0, 20.0 ],
					"presentation" : 1,
					"presentation_rect" : [ 269.125, 162.0, 50.0, 20.0 ]
				}

			}
, 			{
				"box" : 				{
					"fontname" : "Arial",
					"fontsize" : 12.0,
					"id" : "obj-126",
					"maxclass" : "flonum",
					"numinlets" : 1,
					"numoutlets" : 2,
					"outlettype" : [ "float", "bang" ],
					"parameter_enable" : 0,
					"patching_rect" : [ 908.125, 331.0, 50.0, 20.0 ],
					"presentation" : 1,
					"presentation_rect" : [ 216.5, 162.0, 50.0, 20.0 ]
				}

			}
, 			{
				"box" : 				{
					"fontname" : "Arial",
					"fontsize" : 12.0,
					"id" : "obj-127",
					"maxclass" : "newobj",
					"numinlets" : 3,
					"numoutlets" : 1,
					"outlettype" : [ "" ],
					"patching_rect" : [ 922.875, 447.0, 70.0, 20.0 ],
					"text" : "pak 0. 0. 0."
				}

			}
, 			{
				"box" : 				{
					"fontname" : "Arial",
					"fontsize" : 12.0,
					"id" : "obj-128",
					"maxclass" : "message",
					"numinlets" : 2,
					"numoutlets" : 1,
					"outlettype" : [ "" ],
					"patching_rect" : [ 922.875, 477.0, 110.0, 18.0 ],
					"text" : "/translate $1 $2 $3"
				}

			}
, 			{
				"box" : 				{
					"fontname" : "Arial",
					"fontsize" : 12.0,
					"id" : "obj-129",
					"maxclass" : "newobj",
					"numinlets" : 1,
					"numoutlets" : 0,
					"patching_rect" : [ 922.875, 503.0, 39.0, 20.0 ],
					"text" : "s osc"
				}

			}
, 			{
				"box" : 				{
					"fontname" : "Arial",
					"fontsize" : 12.0,
					"id" : "obj-123",
					"maxclass" : "flonum",
					"numinlets" : 1,
					"numoutlets" : 2,
					"outlettype" : [ "float", "bang" ],
					"parameter_enable" : 0,
					"patching_rect" : [ 837.125, 331.0, 50.0, 20.0 ],
					"presentation" : 1,
					"presentation_rect" : [ 321.625, 140.0, 50.0, 20.0 ]
				}

			}
, 			{
				"box" : 				{
					"fontname" : "Arial",
					"fontsize" : 12.0,
					"id" : "obj-122",
					"maxclass" : "flonum",
					"numinlets" : 1,
					"numoutlets" : 2,
					"outlettype" : [ "float", "bang" ],
					"parameter_enable" : 0,
					"patching_rect" : [ 785.625, 331.0, 50.0, 20.0 ],
					"presentation" : 1,
					"presentation_rect" : [ 269.125, 140.0, 50.0, 20.0 ]
				}

			}
, 			{
				"box" : 				{
					"fontname" : "Arial",
					"fontsize" : 12.0,
					"id" : "obj-121",
					"maxclass" : "flonum",
					"numinlets" : 1,
					"numoutlets" : 2,
					"outlettype" : [ "float", "bang" ],
					"parameter_enable" : 0,
					"patching_rect" : [ 732.0, 331.0, 50.0, 20.0 ],
					"presentation" : 1,
					"presentation_rect" : [ 216.5, 140.0, 50.0, 20.0 ]
				}

			}
, 			{
				"box" : 				{
					"fontname" : "Arial",
					"fontsize" : 12.0,
					"id" : "obj-119",
					"maxclass" : "newobj",
					"numinlets" : 3,
					"numoutlets" : 1,
					"outlettype" : [ "" ],
					"patching_rect" : [ 820.375, 436.0, 70.0, 20.0 ],
					"text" : "pak 0. 0. 0."
				}

			}
, 			{
				"box" : 				{
					"fontname" : "Arial",
					"fontsize" : 12.0,
					"id" : "obj-118",
					"maxclass" : "message",
					"numinlets" : 2,
					"numoutlets" : 1,
					"outlettype" : [ "" ],
					"patching_rect" : [ 820.375, 466.0, 95.0, 18.0 ],
					"text" : "/rotate $1 $2 $3"
				}

			}
, 			{
				"box" : 				{
					"fontname" : "Arial",
					"fontsize" : 12.0,
					"id" : "obj-116",
					"maxclass" : "newobj",
					"numinlets" : 1,
					"numoutlets" : 0,
					"patching_rect" : [ 820.375, 492.0, 39.0, 20.0 ],
					"text" : "s osc"
				}

			}
, 			{
				"box" : 				{
					"fontname" : "Arial",
					"fontsize" : 12.0,
					"id" : "obj-103",
					"maxclass" : "flonum",
					"numinlets" : 1,
					"numoutlets" : 2,
					"outlettype" : [ "float", "bang" ],
					"parameter_enable" : 0,
					"patching_rect" : [ 785.75, 82.0, 50.0, 20.0 ],
					"presentation" : 1,
					"presentation_rect" : [ 784.75, 74.0, 50.0, 20.0 ]
				}

			}
, 			{
				"box" : 				{
					"fontname" : "Arial",
					"fontsize" : 12.0,
					"id" : "obj-92",
					"maxclass" : "message",
					"numinlets" : 2,
					"numoutlets" : 1,
					"outlettype" : [ "" ],
					"patching_rect" : [ 531.0, 563.0, 57.0, 18.0 ],
					"text" : "/color $1"
				}

			}
, 			{
				"box" : 				{
					"fontname" : "Arial",
					"fontsize" : 12.0,
					"id" : "obj-93",
					"maxclass" : "newobj",
					"numinlets" : 1,
					"numoutlets" : 0,
					"patching_rect" : [ 531.0, 589.0, 39.0, 20.0 ],
					"text" : "s osc"
				}

			}
, 			{
				"box" : 				{
					"fontname" : "Arial",
					"fontsize" : 12.0,
					"id" : "obj-81",
					"maxclass" : "newobj",
					"numinlets" : 1,
					"numoutlets" : 0,
					"patching_rect" : [ 1322.5, 261.0, 140.0, 20.0 ],
					"text" : "udpsend 127.0.0.1 8000"
				}

			}
, 			{
				"box" : 				{
					"fontname" : "Arial",
					"fontsize" : 12.0,
					"id" : "obj-80",
					"maxclass" : "newobj",
					"numinlets" : 0,
					"numoutlets" : 1,
					"outlettype" : [ "" ],
					"patching_rect" : [ 1322.5, 232.0, 37.0, 20.0 ],
					"text" : "r osc"
				}

			}
, 			{
				"box" : 				{
					"id" : "obj-75",
					"maxclass" : "button",
					"numinlets" : 1,
					"numoutlets" : 1,
					"outlettype" : [ "bang" ],
					"patching_rect" : [ 627.5, 107.0, 20.0, 20.0 ],
					"presentation" : 1,
					"presentation_rect" : [ 633.5, 99.0, 20.0, 20.0 ]
				}

			}
, 			{
				"box" : 				{
					"fontname" : "Arial",
					"fontsize" : 12.0,
					"id" : "obj-72",
					"maxclass" : "message",
					"numinlets" : 2,
					"numoutlets" : 1,
					"outlettype" : [ "" ],
					"patching_rect" : [ 788.25, 144.0, 52.0, 18.0 ],
					"text" : "/reset 1"
				}

			}
, 			{
				"box" : 				{
					"fontname" : "Arial",
					"fontsize" : 12.0,
					"id" : "obj-34",
					"maxclass" : "number",
					"maximum" : 12,
					"minimum" : 1,
					"numinlets" : 1,
					"numoutlets" : 2,
					"outlettype" : [ "int", "bang" ],
					"parameter_enable" : 0,
					"patching_rect" : [ 707.0, 183.0, 50.0, 20.0 ]
				}

			}
, 			{
				"box" : 				{
					"fontname" : "Arial",
					"fontsize" : 12.0,
					"id" : "obj-32",
					"maxclass" : "message",
					"numinlets" : 2,
					"numoutlets" : 1,
					"outlettype" : [ "" ],
					"patching_rect" : [ 707.0, 217.0, 100.0, 18.0 ],
					"text" : "/moveMode $1 1"
				}

			}
, 			{
				"box" : 				{
					"fontname" : "Arial",
					"fontsize" : 12.0,
					"id" : "obj-31",
					"maxclass" : "flonum",
					"numinlets" : 1,
					"numoutlets" : 2,
					"outlettype" : [ "float", "bang" ],
					"parameter_enable" : 0,
					"patching_rect" : [ 885.75, 82.0, 50.0, 20.0 ],
					"presentation" : 1,
					"presentation_rect" : [ 884.75, 74.0, 50.0, 20.0 ]
				}

			}
, 			{
				"box" : 				{
					"fontname" : "Arial",
					"fontsize" : 12.0,
					"id" : "obj-30",
					"maxclass" : "number",
					"maximum" : 2,
					"minimum" : 0,
					"numinlets" : 1,
					"numoutlets" : 2,
					"outlettype" : [ "int", "bang" ],
					"parameter_enable" : 0,
					"patching_rect" : [ 835.75, 82.0, 50.0, 20.0 ],
					"presentation" : 1,
					"presentation_rect" : [ 834.75, 74.0, 50.0, 20.0 ]
				}

			}
, 			{
				"box" : 				{
					"fontname" : "Arial",
					"fontsize" : 12.0,
					"id" : "obj-28",
					"maxclass" : "flonum",
					"numinlets" : 1,
					"numoutlets" : 2,
					"outlettype" : [ "float", "bang" ],
					"parameter_enable" : 0,
					"patching_rect" : [ 735.75, 82.0, 50.0, 20.0 ],
					"presentation" : 1,
					"presentation_rect" : [ 734.75, 74.0, 50.0, 20.0 ]
				}

			}
, 			{
				"box" : 				{
					"fontname" : "Arial",
					"fontsize" : 12.0,
					"id" : "obj-27",
					"maxclass" : "flonum",
					"numinlets" : 1,
					"numoutlets" : 2,
					"outlettype" : [ "float", "bang" ],
					"parameter_enable" : 0,
					"patching_rect" : [ 684.5, 82.0, 50.0, 20.0 ],
					"presentation" : 1,
					"presentation_rect" : [ 682.5, 74.0, 50.0, 20.0 ]
				}

			}
, 			{
				"box" : 				{
					"fontname" : "Arial",
					"fontsize" : 12.0,
					"id" : "obj-26",
					"maxclass" : "flonum",
					"numinlets" : 1,
					"numoutlets" : 2,
					"outlettype" : [ "float", "bang" ],
					"parameter_enable" : 0,
					"patching_rect" : [ 625.5, 82.0, 50.0, 20.0 ],
					"presentation" : 1,
					"presentation_rect" : [ 631.5, 74.0, 50.0, 20.0 ]
				}

			}
, 			{
				"box" : 				{
					"id" : "obj-22",
					"maxclass" : "toggle",
					"numinlets" : 1,
					"numoutlets" : 1,
					"outlettype" : [ "int" ],
					"parameter_enable" : 0,
					"patching_rect" : [ 497.5, 82.0, 20.0, 20.0 ],
					"presentation" : 1,
					"presentation_rect" : [ 479.0, 74.0, 45.0, 45.0 ]
				}

			}
, 			{
				"box" : 				{
					"fontname" : "Arial",
					"fontsize" : 12.0,
					"id" : "obj-19",
					"maxclass" : "newobj",
					"numinlets" : 8,
					"numoutlets" : 1,
					"outlettype" : [ "" ],
					"patching_rect" : [ 487.0, 151.0, 127.0, 20.0 ],
					"text" : "pak 0 0 0. 0. 0. 0. 0 0."
				}

			}
, 			{
				"box" : 				{
					"fontname" : "Arial",
					"fontsize" : 12.0,
					"id" : "obj-13",
					"maxclass" : "message",
					"numinlets" : 2,
					"numoutlets" : 1,
					"outlettype" : [ "" ],
					"patching_rect" : [ 487.0, 188.0, 183.0, 18.0 ],
					"text" : "/each $1 $2 $3 $4 $5 $6 $7 $8 1"
				}

			}
, 			{
				"box" : 				{
					"fontname" : "Arial",
					"fontsize" : 12.0,
					"id" : "obj-1",
					"maxclass" : "newobj",
					"numinlets" : 1,
					"numoutlets" : 0,
					"patching_rect" : [ 707.0, 249.0, 39.0, 20.0 ],
					"text" : "s osc"
				}

			}
 ],
		"lines" : [ 			{
				"patchline" : 				{
					"destination" : [ "obj-12", 0 ],
					"disabled" : 0,
					"hidden" : 0,
					"source" : [ "obj-10", 0 ]
				}

			}
, 			{
				"patchline" : 				{
					"destination" : [ "obj-14", 0 ],
					"disabled" : 0,
					"hidden" : 0,
					"source" : [ "obj-10", 1 ]
				}

			}
, 			{
				"patchline" : 				{
					"destination" : [ "obj-19", 5 ],
					"disabled" : 0,
					"hidden" : 0,
					"source" : [ "obj-103", 0 ]
				}

			}
, 			{
				"patchline" : 				{
					"destination" : [ "obj-116", 0 ],
					"disabled" : 0,
					"hidden" : 0,
					"source" : [ "obj-118", 0 ]
				}

			}
, 			{
				"patchline" : 				{
					"destination" : [ "obj-118", 0 ],
					"disabled" : 0,
					"hidden" : 0,
					"source" : [ "obj-119", 0 ]
				}

			}
, 			{
				"patchline" : 				{
					"destination" : [ "obj-161", 0 ],
					"disabled" : 0,
					"hidden" : 0,
					"source" : [ "obj-12", 0 ]
				}

			}
, 			{
				"patchline" : 				{
					"destination" : [ "obj-119", 0 ],
					"disabled" : 0,
					"hidden" : 0,
					"source" : [ "obj-121", 0 ]
				}

			}
, 			{
				"patchline" : 				{
					"destination" : [ "obj-119", 1 ],
					"disabled" : 0,
					"hidden" : 0,
					"source" : [ "obj-122", 0 ]
				}

			}
, 			{
				"patchline" : 				{
					"destination" : [ "obj-119", 2 ],
					"disabled" : 0,
					"hidden" : 0,
					"source" : [ "obj-123", 0 ]
				}

			}
, 			{
				"patchline" : 				{
					"destination" : [ "obj-127", 2 ],
					"disabled" : 0,
					"hidden" : 0,
					"source" : [ "obj-124", 0 ]
				}

			}
, 			{
				"patchline" : 				{
					"destination" : [ "obj-127", 1 ],
					"disabled" : 0,
					"hidden" : 0,
					"source" : [ "obj-125", 0 ]
				}

			}
, 			{
				"patchline" : 				{
					"destination" : [ "obj-127", 0 ],
					"disabled" : 0,
					"hidden" : 0,
					"source" : [ "obj-126", 0 ]
				}

			}
, 			{
				"patchline" : 				{
					"destination" : [ "obj-128", 0 ],
					"disabled" : 0,
					"hidden" : 0,
					"source" : [ "obj-127", 0 ]
				}

			}
, 			{
				"patchline" : 				{
					"destination" : [ "obj-129", 0 ],
					"disabled" : 0,
					"hidden" : 0,
					"source" : [ "obj-128", 0 ]
				}

			}
, 			{
				"patchline" : 				{
					"destination" : [ "obj-1", 0 ],
					"disabled" : 0,
					"hidden" : 0,
					"source" : [ "obj-13", 0 ]
				}

			}
, 			{
				"patchline" : 				{
					"destination" : [ "obj-130", 0 ],
					"disabled" : 0,
					"hidden" : 0,
					"source" : [ "obj-131", 0 ]
				}

			}
, 			{
				"patchline" : 				{
					"destination" : [ "obj-161", 0 ],
					"disabled" : 0,
					"hidden" : 0,
					"source" : [ "obj-14", 0 ]
				}

			}
, 			{
				"patchline" : 				{
					"destination" : [ "obj-92", 0 ],
					"disabled" : 0,
					"hidden" : 0,
					"source" : [ "obj-161", 0 ]
				}

			}
, 			{
				"patchline" : 				{
					"destination" : [ "obj-13", 0 ],
					"disabled" : 0,
					"hidden" : 0,
					"source" : [ "obj-19", 0 ]
				}

			}
, 			{
				"patchline" : 				{
					"destination" : [ "obj-199", 0 ],
					"disabled" : 0,
					"hidden" : 0,
					"source" : [ "obj-201", 0 ]
				}

			}
, 			{
				"patchline" : 				{
					"destination" : [ "obj-10", 0 ],
					"disabled" : 0,
					"hidden" : 0,
					"source" : [ "obj-202", 0 ]
				}

			}
, 			{
				"patchline" : 				{
					"destination" : [ "obj-201", 0 ],
					"disabled" : 0,
					"hidden" : 0,
					"source" : [ "obj-202", 0 ]
				}

			}
, 			{
				"patchline" : 				{
					"destination" : [ "obj-23", 0 ],
					"disabled" : 0,
					"hidden" : 0,
					"source" : [ "obj-21", 0 ]
				}

			}
, 			{
				"patchline" : 				{
					"destination" : [ "obj-19", 0 ],
					"disabled" : 0,
					"hidden" : 0,
					"source" : [ "obj-22", 0 ]
				}

			}
, 			{
				"patchline" : 				{
					"destination" : [ "obj-34", 0 ],
					"disabled" : 0,
					"hidden" : 0,
					"source" : [ "obj-23", 0 ]
				}

			}
, 			{
				"patchline" : 				{
					"destination" : [ "obj-19", 2 ],
					"disabled" : 0,
					"hidden" : 0,
					"source" : [ "obj-26", 0 ]
				}

			}
, 			{
				"patchline" : 				{
					"destination" : [ "obj-19", 3 ],
					"disabled" : 0,
					"hidden" : 0,
					"source" : [ "obj-27", 0 ]
				}

			}
, 			{
				"patchline" : 				{
					"destination" : [ "obj-19", 4 ],
					"disabled" : 0,
					"hidden" : 0,
					"source" : [ "obj-28", 0 ]
				}

			}
, 			{
				"patchline" : 				{
					"destination" : [ "obj-19", 6 ],
					"disabled" : 0,
					"hidden" : 0,
					"source" : [ "obj-30", 0 ]
				}

			}
, 			{
				"patchline" : 				{
					"destination" : [ "obj-19", 7 ],
					"disabled" : 0,
					"hidden" : 0,
					"source" : [ "obj-31", 0 ]
				}

			}
, 			{
				"patchline" : 				{
					"destination" : [ "obj-1", 0 ],
					"disabled" : 0,
					"hidden" : 0,
					"source" : [ "obj-32", 0 ]
				}

			}
, 			{
				"patchline" : 				{
					"destination" : [ "obj-48", 0 ],
					"disabled" : 0,
					"hidden" : 0,
					"source" : [ "obj-33", 0 ]
				}

			}
, 			{
				"patchline" : 				{
					"destination" : [ "obj-32", 0 ],
					"disabled" : 0,
					"hidden" : 0,
					"source" : [ "obj-34", 0 ]
				}

			}
, 			{
				"patchline" : 				{
					"destination" : [ "obj-33", 0 ],
					"disabled" : 0,
					"hidden" : 0,
					"source" : [ "obj-35", 0 ]
				}

			}
, 			{
				"patchline" : 				{
					"destination" : [ "obj-56", 1 ],
					"disabled" : 0,
					"hidden" : 0,
					"source" : [ "obj-43", 0 ]
				}

			}
, 			{
				"patchline" : 				{
					"destination" : [ "obj-56", 5 ],
					"disabled" : 0,
					"hidden" : 0,
					"source" : [ "obj-45", 0 ]
				}

			}
, 			{
				"patchline" : 				{
					"destination" : [ "obj-47", 0 ],
					"disabled" : 0,
					"hidden" : 0,
					"source" : [ "obj-46", 0 ]
				}

			}
, 			{
				"patchline" : 				{
					"destination" : [ "obj-58", 0 ],
					"disabled" : 0,
					"hidden" : 0,
					"source" : [ "obj-47", 0 ]
				}

			}
, 			{
				"patchline" : 				{
					"destination" : [ "obj-49", 0 ],
					"disabled" : 0,
					"hidden" : 0,
					"source" : [ "obj-48", 0 ]
				}

			}
, 			{
				"patchline" : 				{
					"destination" : [ "obj-58", 0 ],
					"disabled" : 0,
					"hidden" : 0,
					"source" : [ "obj-49", 0 ]
				}

			}
, 			{
				"patchline" : 				{
					"destination" : [ "obj-56", 7 ],
					"disabled" : 0,
					"hidden" : 0,
					"source" : [ "obj-50", 0 ]
				}

			}
, 			{
				"patchline" : 				{
					"destination" : [ "obj-56", 6 ],
					"disabled" : 0,
					"hidden" : 0,
					"source" : [ "obj-51", 0 ]
				}

			}
, 			{
				"patchline" : 				{
					"destination" : [ "obj-56", 4 ],
					"disabled" : 0,
					"hidden" : 0,
					"source" : [ "obj-52", 0 ]
				}

			}
, 			{
				"patchline" : 				{
					"destination" : [ "obj-56", 3 ],
					"disabled" : 0,
					"hidden" : 0,
					"source" : [ "obj-53", 0 ]
				}

			}
, 			{
				"patchline" : 				{
					"destination" : [ "obj-56", 2 ],
					"disabled" : 0,
					"hidden" : 0,
					"source" : [ "obj-54", 0 ]
				}

			}
, 			{
				"patchline" : 				{
					"destination" : [ "obj-56", 0 ],
					"disabled" : 0,
					"hidden" : 0,
					"source" : [ "obj-55", 0 ]
				}

			}
, 			{
				"patchline" : 				{
					"destination" : [ "obj-57", 0 ],
					"disabled" : 0,
					"hidden" : 0,
					"source" : [ "obj-56", 0 ]
				}

			}
, 			{
				"patchline" : 				{
					"destination" : [ "obj-58", 0 ],
					"disabled" : 0,
					"hidden" : 0,
					"source" : [ "obj-57", 0 ]
				}

			}
, 			{
				"patchline" : 				{
					"destination" : [ "obj-19", 1 ],
					"disabled" : 0,
					"hidden" : 0,
					"source" : [ "obj-6", 0 ]
				}

			}
, 			{
				"patchline" : 				{
					"destination" : [ "obj-76", 0 ],
					"disabled" : 0,
					"hidden" : 0,
					"source" : [ "obj-60", 0 ]
				}

			}
, 			{
				"patchline" : 				{
					"destination" : [ "obj-60", 0 ],
					"disabled" : 0,
					"hidden" : 0,
					"source" : [ "obj-61", 0 ]
				}

			}
, 			{
				"patchline" : 				{
					"destination" : [ "obj-86", 1 ],
					"disabled" : 0,
					"hidden" : 0,
					"source" : [ "obj-69", 0 ]
				}

			}
, 			{
				"patchline" : 				{
					"destination" : [ "obj-86", 5 ],
					"disabled" : 0,
					"hidden" : 0,
					"source" : [ "obj-71", 0 ]
				}

			}
, 			{
				"patchline" : 				{
					"destination" : [ "obj-1", 0 ],
					"disabled" : 0,
					"hidden" : 0,
					"source" : [ "obj-72", 0 ]
				}

			}
, 			{
				"patchline" : 				{
					"destination" : [ "obj-74", 0 ],
					"disabled" : 0,
					"hidden" : 0,
					"source" : [ "obj-73", 0 ]
				}

			}
, 			{
				"patchline" : 				{
					"destination" : [ "obj-88", 0 ],
					"disabled" : 0,
					"hidden" : 0,
					"source" : [ "obj-74", 0 ]
				}

			}
, 			{
				"patchline" : 				{
					"destination" : [ "obj-72", 0 ],
					"disabled" : 0,
					"hidden" : 0,
					"source" : [ "obj-75", 0 ]
				}

			}
, 			{
				"patchline" : 				{
					"destination" : [ "obj-77", 0 ],
					"disabled" : 0,
					"hidden" : 0,
					"source" : [ "obj-76", 0 ]
				}

			}
, 			{
				"patchline" : 				{
					"destination" : [ "obj-88", 0 ],
					"disabled" : 0,
					"hidden" : 0,
					"source" : [ "obj-77", 0 ]
				}

			}
, 			{
				"patchline" : 				{
					"destination" : [ "obj-86", 7 ],
					"disabled" : 0,
					"hidden" : 0,
					"source" : [ "obj-78", 0 ]
				}

			}
, 			{
				"patchline" : 				{
					"destination" : [ "obj-86", 6 ],
					"disabled" : 0,
					"hidden" : 0,
					"source" : [ "obj-79", 0 ]
				}

			}
, 			{
				"patchline" : 				{
					"destination" : [ "obj-81", 0 ],
					"disabled" : 0,
					"hidden" : 0,
					"source" : [ "obj-80", 0 ]
				}

			}
, 			{
				"patchline" : 				{
					"destination" : [ "obj-86", 4 ],
					"disabled" : 0,
					"hidden" : 0,
					"source" : [ "obj-82", 0 ]
				}

			}
, 			{
				"patchline" : 				{
					"destination" : [ "obj-86", 3 ],
					"disabled" : 0,
					"hidden" : 0,
					"source" : [ "obj-83", 0 ]
				}

			}
, 			{
				"patchline" : 				{
					"destination" : [ "obj-86", 2 ],
					"disabled" : 0,
					"hidden" : 0,
					"source" : [ "obj-84", 0 ]
				}

			}
, 			{
				"patchline" : 				{
					"destination" : [ "obj-86", 0 ],
					"disabled" : 0,
					"hidden" : 0,
					"source" : [ "obj-85", 0 ]
				}

			}
, 			{
				"patchline" : 				{
					"destination" : [ "obj-87", 0 ],
					"disabled" : 0,
					"hidden" : 0,
					"source" : [ "obj-86", 0 ]
				}

			}
, 			{
				"patchline" : 				{
					"destination" : [ "obj-88", 0 ],
					"disabled" : 0,
					"hidden" : 0,
					"source" : [ "obj-87", 0 ]
				}

			}
, 			{
				"patchline" : 				{
					"destination" : [ "obj-161", 0 ],
					"disabled" : 0,
					"hidden" : 0,
					"source" : [ "obj-9", 0 ]
				}

			}
, 			{
				"patchline" : 				{
					"destination" : [ "obj-93", 0 ],
					"disabled" : 0,
					"hidden" : 0,
					"source" : [ "obj-92", 0 ]
				}

			}
, 			{
				"patchline" : 				{
					"destination" : [ "obj-131", 0 ],
					"disabled" : 0,
					"hidden" : 0,
					"source" : [ "obj-95", 0 ]
				}

			}
 ],
		"dependency_cache" : [  ]
	}

}
